<svg width="539" height="50" viewBox="0 0 539 50" fill="none" xmlns="http://www.w3.org/2000/svg">
<path opacity="0.3" d="M267.312 8.3335C264.458 10.8127 259.25 12.7502 253 12.7502C246.75 12.7502 241.542 10.8127 238.688 8.3335H267.312Z" fill="black"/>
<path d="M257.167 22.9165V16.6665C266.667 15.4582 273.833 10.2082 273.833 4.1665H232.167C232.167 10.2082 239.333 15.4582 248.833 16.6665V22.9165C241.167 24.4373 232.167 30.4373 232.167 45.8332H244.667V41.6665H236.604C238.542 27.4373 250.458 26.6665 253 26.6665C255.542 26.6665 267.458 27.4373 269.396 41.6665H261.333V45.8332H273.833C273.833 30.4373 264.833 24.4373 257.167 22.9165ZM267.312 8.33317C264.458 10.8123 259.25 12.7498 253 12.7498C246.75 12.7498 241.542 10.8123 238.687 8.33317H267.312ZM253 45.8332C250.708 45.8332 248.833 43.9582 248.833 41.6665C248.833 40.5207 249.292 39.479 250.062 38.729C251.729 37.0623 261.333 33.3332 261.333 33.3332C261.333 33.3332 257.604 42.9373 255.937 44.604C255.187 45.3748 254.146 45.8332 253 45.8332Z" fill="black"/>
<path d="M130.967 5.74792L127.844 8.87083L124.217 5.24167L127.233 2.225L125.01 0L113 12.0104L115.223 14.2333L118.24 11.2167L121.869 14.8458L118.746 17.9688L145.746 44.9687L156.994 45.2271L161.762 49.9958L163.958 49.7583L158.212 44.0125L157.954 32.7646L130.967 5.74792ZM130.967 9.30625L144.683 23.0229L136.042 31.6646L132.55 28.1771L136.883 23.8438L135.05 22.0104L130.717 26.3438L127.487 23.1146L131.821 18.7812L129.987 16.9479L125.654 21.2812L122.333 17.9604L130.967 9.30625Z" fill="black"/>
<path d="M44.4445 8.3335H5.55561C4.8189 8.3335 4.11236 8.62615 3.59142 9.14709C3.07049 9.66802 2.77783 10.3746 2.77783 11.1113V38.8891C2.77783 39.6258 3.07049 40.3323 3.59142 40.8532C4.11236 41.3742 4.8189 41.6668 5.55561 41.6668H44.4445C45.1812 41.6668 45.8878 41.3742 46.4087 40.8532C46.9296 40.3323 47.2223 39.6258 47.2223 38.8891V11.1113C47.2223 10.3746 46.9296 9.66802 46.4087 9.14709C45.8878 8.62615 45.1812 8.3335 44.4445 8.3335V8.3335ZM44.4445 38.8891H5.55561V11.1113H44.4445V38.8891Z" fill="black"/>
<path d="M12.5 19.4443H37.5C37.8683 19.4443 38.2216 19.298 38.4821 19.0375C38.7425 18.777 38.8889 18.4237 38.8889 18.0554C38.8889 17.687 38.7425 17.3338 38.4821 17.0733C38.2216 16.8128 37.8683 16.6665 37.5 16.6665H12.5C12.1316 16.6665 11.7783 16.8128 11.5179 17.0733C11.2574 17.3338 11.1111 17.687 11.1111 18.0554C11.1111 18.4237 11.2574 18.777 11.5179 19.0375C11.7783 19.298 12.1316 19.4443 12.5 19.4443Z" fill="black"/>
<path d="M12.5 24.9999H37.5C37.8683 24.9999 38.2216 24.8536 38.4821 24.5932C38.7425 24.3327 38.8889 23.9794 38.8889 23.6111C38.8889 23.2427 38.7425 22.8894 38.4821 22.629C38.2216 22.3685 37.8683 22.2222 37.5 22.2222H12.5C12.1316 22.2222 11.7783 22.3685 11.5179 22.629C11.2574 22.8894 11.1111 23.2427 11.1111 23.6111C11.1111 23.9794 11.2574 24.3327 11.5179 24.5932C11.7783 24.8536 12.1316 24.9999 12.5 24.9999V24.9999Z" fill="black"/>
<path d="M12.5 30.5556H26.3889C26.7572 30.5556 27.1105 30.4093 27.371 30.1488C27.6314 29.8883 27.7778 29.5351 27.7778 29.1667C27.7778 28.7984 27.6314 28.4451 27.371 28.1846C27.1105 27.9242 26.7572 27.7778 26.3889 27.7778H12.5C12.1316 27.7778 11.7783 27.9242 11.5179 28.1846C11.2574 28.4451 11.1111 28.7984 11.1111 29.1667C11.1111 29.5351 11.2574 29.8883 11.5179 30.1488C11.7783 30.4093 12.1316 30.5556 12.5 30.5556V30.5556Z" fill="black"/>
<path d="M370.812 0C373.41 0 375.5 1.0498 375.5 2.34375V6.25H350.5V2.34375C350.5 1.0498 352.59 0 355.188 0H370.812ZM338 14.8145C338 13.291 339.766 11.9043 342.529 11.2598L347.297 10.1367C349.441 9.63574 351.789 9.375 354.152 9.375H371.848C374.211 9.375 376.555 9.63574 378.703 10.1367L383.469 11.2598C386.066 11.9043 388 13.291 388 14.8145C388 16.2207 386.535 17.4512 384.309 18.1445C386.555 19.0039 388 20.3516 388 21.7871C388 23.5059 386.34 24.9414 383.801 25.6934C386.34 26.6211 388 28.0566 388 29.5996C388 31.3184 386.34 32.7539 383.801 33.5938C386.34 34.4336 388 35.8691 388 37.5C388 39.1309 386.34 40.5664 383.801 41.4062C386.34 42.2461 388 43.6816 388 45.3125C388 47.9004 383.801 50 378.625 50H347.375C342.197 50 338 47.9004 338 45.3125C338 43.6816 339.664 42.2461 342.191 41.4062C339.664 40.5664 338 39.1309 338 37.5C338 35.8691 339.664 34.4336 342.191 33.5938C339.664 32.7539 338 31.3184 338 29.5996C338 28.0566 339.664 26.6211 342.191 25.6934C339.664 24.9414 338 23.5059 338 21.7871C338 20.3516 339.445 19.0039 341.686 18.1445C339.471 17.4512 338 16.2207 338 14.8145ZM353.625 25H372.375C374.094 25 375.5 24.2969 375.5 23.4375C375.5 22.5781 374.094 21.875 372.375 21.875H353.625C351.906 21.875 350.5 22.5781 350.5 23.4375C350.5 24.2969 351.906 25 353.625 25ZM353.625 34.375C351.906 34.375 350.5 35.0781 350.5 35.9375C350.5 36.7969 351.906 37.5 353.625 37.5H372.375C374.094 37.5 375.5 36.7969 375.5 35.9375C375.5 35.0781 374.094 34.375 372.375 34.375H353.625Z" fill="black"/>
<path d="M406.631 31.3409V19.2727H409.682V31.3409H406.631ZM402.122 26.8324V23.7812H414.19V26.8324H402.122ZM417.463 30.9318V28.0256L424.75 16.5455H427.256V20.5682H425.773L421.179 27.8381V27.9744H431.534V30.9318H417.463ZM425.841 34V30.0455L425.909 28.7585V16.5455H429.369V34H425.841ZM447.738 23.8324V26.7131H439.778V23.8324H447.738ZM457.496 34.2386C456.599 34.233 455.732 34.0824 454.897 33.7869C454.067 33.4915 453.323 33.0114 452.664 32.3466C452.005 31.6818 451.482 30.8011 451.096 29.7045C450.715 28.608 450.525 27.2614 450.525 25.6648C450.531 24.1989 450.698 22.8892 451.028 21.7358C451.363 20.5767 451.84 19.5937 452.46 18.7869C453.085 17.9801 453.832 17.3665 454.701 16.946C455.57 16.5199 456.545 16.3068 457.624 16.3068C458.789 16.3068 459.817 16.5341 460.71 16.9886C461.602 17.4375 462.317 18.0483 462.857 18.821C463.403 19.5938 463.732 20.4602 463.846 21.4205H460.207C460.065 20.8125 459.766 20.3352 459.312 19.9886C458.857 19.642 458.295 19.4688 457.624 19.4688C456.488 19.4688 455.624 19.9631 455.033 20.9517C454.448 21.9403 454.15 23.2841 454.138 24.983H454.258C454.519 24.4659 454.871 24.0256 455.315 23.6619C455.763 23.2926 456.272 23.0114 456.84 22.8182C457.414 22.6193 458.019 22.5199 458.656 22.5199C459.69 22.5199 460.61 22.7642 461.417 23.2528C462.224 23.7358 462.86 24.4006 463.326 25.2472C463.792 26.0937 464.025 27.0625 464.025 28.1534C464.025 29.3352 463.749 30.3864 463.198 31.3068C462.653 32.2273 461.888 32.9489 460.906 33.4716C459.928 33.9886 458.792 34.2443 457.496 34.2386ZM457.479 31.3409C458.048 31.3409 458.556 31.2045 459.005 30.9318C459.454 30.6591 459.806 30.2898 460.062 29.8239C460.317 29.358 460.445 28.8352 460.445 28.2557C460.445 27.6761 460.317 27.1562 460.062 26.696C459.812 26.2358 459.465 25.8693 459.022 25.5966C458.579 25.3239 458.073 25.1875 457.505 25.1875C457.079 25.1875 456.684 25.267 456.32 25.4261C455.962 25.5852 455.647 25.8068 455.374 26.0909C455.107 26.375 454.897 26.7045 454.744 27.0795C454.59 27.4489 454.513 27.8437 454.513 28.2642C454.513 28.8267 454.641 29.3409 454.897 29.8068C455.158 30.2727 455.511 30.6449 455.954 30.9233C456.403 31.2017 456.911 31.3409 457.479 31.3409ZM475.861 26.4318V34H472.23V16.5455H475.759V23.2188H475.912C476.207 22.446 476.685 21.8409 477.344 21.4034C478.003 20.9602 478.83 20.7386 479.824 20.7386C480.733 20.7386 481.526 20.9375 482.202 21.3352C482.884 21.7273 483.412 22.2926 483.787 23.0312C484.168 23.7642 484.355 24.642 484.349 25.6648V34H480.719V26.3125C480.724 25.5057 480.52 24.8778 480.105 24.429C479.696 23.9801 479.122 23.7557 478.384 23.7557C477.889 23.7557 477.452 23.8608 477.071 24.071C476.696 24.2812 476.401 24.5881 476.185 24.9915C475.974 25.3892 475.866 25.8693 475.861 26.4318ZM493.121 34.2557C491.798 34.2557 490.653 33.9744 489.687 33.4119C488.727 32.8437 487.985 32.054 487.462 31.0426C486.94 30.0256 486.678 28.8466 486.678 27.5057C486.678 26.1534 486.94 24.9716 487.462 23.9602C487.985 22.9432 488.727 22.1534 489.687 21.5909C490.653 21.0227 491.798 20.7386 493.121 20.7386C494.445 20.7386 495.587 21.0227 496.548 21.5909C497.513 22.1534 498.258 22.9432 498.781 23.9602C499.303 24.9716 499.565 26.1534 499.565 27.5057C499.565 28.8466 499.303 30.0256 498.781 31.0426C498.258 32.054 497.513 32.8437 496.548 33.4119C495.587 33.9744 494.445 34.2557 493.121 34.2557ZM493.138 31.4432C493.741 31.4432 494.244 31.2727 494.647 30.9318C495.05 30.5852 495.354 30.1136 495.559 29.517C495.769 28.9205 495.874 28.2415 495.874 27.4801C495.874 26.7188 495.769 26.0398 495.559 25.4432C495.354 24.8466 495.05 24.375 494.647 24.0284C494.244 23.6818 493.741 23.5085 493.138 23.5085C492.531 23.5085 492.019 23.6818 491.604 24.0284C491.195 24.375 490.886 24.8466 490.675 25.4432C490.471 26.0398 490.369 26.7188 490.369 27.4801C490.369 28.2415 490.471 28.9205 490.675 29.517C490.886 30.1136 491.195 30.5852 491.604 30.9318C492.019 31.2727 492.531 31.4432 493.138 31.4432ZM510.32 28.4261V20.9091H513.951V34H510.465V31.6222H510.329C510.033 32.3892 509.542 33.0057 508.854 33.4716C508.173 33.9375 507.34 34.1705 506.357 34.1705C505.482 34.1705 504.712 33.9716 504.048 33.5739C503.383 33.1761 502.863 32.6108 502.488 31.8778C502.119 31.1449 501.931 30.267 501.925 29.2443V20.9091H505.556V28.5966C505.562 29.3693 505.769 29.9801 506.178 30.429C506.587 30.8778 507.136 31.1023 507.823 31.1023C508.261 31.1023 508.67 31.0028 509.05 30.804C509.431 30.5994 509.738 30.2983 509.971 29.9006C510.21 29.5028 510.326 29.0114 510.32 28.4261ZM516.855 34V20.9091H520.375V23.1932H520.511C520.75 22.3807 521.151 21.767 521.713 21.3523C522.276 20.9318 522.923 20.7216 523.656 20.7216C523.838 20.7216 524.034 20.733 524.244 20.7557C524.455 20.7784 524.639 20.8097 524.798 20.8494V24.071C524.628 24.0199 524.392 23.9744 524.091 23.9347C523.79 23.8949 523.514 23.875 523.264 23.875C522.73 23.875 522.253 23.9915 521.832 24.2244C521.418 24.4517 521.088 24.7699 520.844 25.179C520.605 25.5881 520.486 26.0597 520.486 26.5938V34H516.855ZM537.567 24.642L534.244 24.8466C534.187 24.5625 534.065 24.3068 533.877 24.0795C533.69 23.8466 533.442 23.6619 533.136 23.5256C532.835 23.3835 532.474 23.3125 532.053 23.3125C531.491 23.3125 531.016 23.4318 530.63 23.6705C530.244 23.9034 530.05 24.2159 530.05 24.608C530.05 24.9205 530.175 25.1847 530.425 25.4006C530.675 25.6165 531.104 25.7898 531.712 25.9205L534.082 26.3977C535.354 26.6591 536.303 27.0795 536.928 27.6591C537.553 28.2386 537.866 29 537.866 29.9432C537.866 30.8011 537.613 31.554 537.107 32.2017C536.607 32.8494 535.92 33.3551 535.045 33.7188C534.175 34.0767 533.173 34.2557 532.036 34.2557C530.303 34.2557 528.923 33.8949 527.894 33.1733C526.871 32.446 526.272 31.4574 526.096 30.2074L529.667 30.0199C529.775 30.5483 530.036 30.9517 530.451 31.2301C530.866 31.5028 531.397 31.6392 532.045 31.6392C532.681 31.6392 533.192 31.517 533.579 31.2727C533.971 31.0227 534.17 30.7017 534.175 30.3097C534.17 29.9801 534.031 29.7102 533.758 29.5C533.485 29.2841 533.065 29.1193 532.496 29.0057L530.229 28.554C528.951 28.2983 527.999 27.8551 527.374 27.2244C526.755 26.5937 526.445 25.7898 526.445 24.8125C526.445 23.9716 526.673 23.2472 527.127 22.6392C527.587 22.0312 528.232 21.5625 529.062 21.233C529.897 20.9034 530.874 20.7386 531.994 20.7386C533.647 20.7386 534.948 21.0881 535.897 21.7869C536.852 22.4858 537.408 23.4375 537.567 24.642Z" fill="black"/>
</svg>
