<svg width="1034" height="100" viewBox="0 0 1034 100" fill="none" xmlns="http://www.w3.org/2000/svg">
<path d="M0 0H517H1034V100H0V0Z" fill="white"/>
<path d="M1033.5 0.5V99.5H0.5V0.5H517H1033.5Z" stroke="black" stroke-opacity="0.48"/>
<path fill-rule="evenodd" clip-rule="evenodd" d="M661 29H685V53H661V29ZM666.5 46.815C666.5 46.985 666.529 47.1525 666.583 47.3105C664.925 45.629 663.997 43.3615 664 41C664 36.0295 668.03 32 673 32C677.971 32 682 36.0295 682 41C682.003 43.3652 681.072 45.6359 679.41 47.318C679.488 47.1044 679.516 46.8758 679.493 46.6495C679.469 46.4232 679.394 46.2053 679.274 46.0124C679.153 45.8194 678.991 45.6564 678.798 45.5359C678.605 45.4154 678.387 45.3406 678.16 45.317C674.281 44.9155 671.743 44.877 667.845 45.308C667.474 45.3497 667.132 45.5266 666.884 45.8048C666.636 46.0829 666.499 46.4428 666.5 46.8155V46.815ZM663 41C663 46.386 667.259 50.778 672.592 50.992C672.705 50.9982 672.818 51.0007 672.931 50.9995L673 51C678.523 51 683 46.523 683 41C683 35.477 678.523 31 673 31C667.477 31 663 35.477 663 41ZM673 43C674.061 43 675.078 42.5786 675.828 41.8284C676.579 41.0783 677 40.0609 677 39C677 37.9391 676.579 36.9217 675.828 36.1716C675.078 35.4214 674.061 35 673 35C671.939 35 670.922 35.4214 670.172 36.1716C669.421 36.9217 669 37.9391 669 39C669 40.0609 669.421 41.0783 670.172 41.8284C670.922 42.5786 671.939 43 673 43Z" fill="black"/>
<path fill-rule="evenodd" clip-rule="evenodd" d="M352 26H376V50H352V26ZM357.5 43.815C357.5 43.985 357.529 44.1525 357.583 44.3105C355.925 42.629 354.997 40.3615 355 38C355 33.0295 359.03 29 364 29C368.971 29 373 33.0295 373 38C373.003 40.3652 372.072 42.6359 370.41 44.318C370.488 44.1044 370.516 43.8758 370.493 43.6495C370.469 43.4232 370.394 43.2053 370.274 43.0124C370.153 42.8194 369.991 42.6564 369.798 42.5359C369.605 42.4154 369.387 42.3406 369.16 42.317C365.281 41.9155 362.743 41.877 358.845 42.308C358.474 42.3497 358.132 42.5266 357.884 42.8048C357.636 43.0829 357.499 43.4428 357.5 43.8155V43.815ZM354 38C354 43.386 358.259 47.778 363.592 47.992C363.705 47.9982 363.818 48.0007 363.931 47.9995L364 48C369.523 48 374 43.523 374 38C374 32.477 369.523 28 364 28C358.477 28 354 32.477 354 38ZM364 40C365.061 40 366.078 39.5786 366.828 38.8284C367.579 38.0783 368 37.0609 368 36C368 34.9391 367.579 33.9217 366.828 33.1716C366.078 32.4214 365.061 32 364 32C362.939 32 361.922 32.4214 361.172 33.1716C360.421 33.9217 360 34.9391 360 36C360 37.0609 360.421 38.0783 361.172 38.8284C361.922 39.5786 362.939 40 364 40Z" fill="black"/>
<path d="M923 30.5C920.813 30.5026 918.716 31.3726 917.169 32.9192C915.623 34.4658 914.753 36.5628 914.75 38.75C914.747 40.5374 915.331 42.2763 916.412 43.7C916.412 43.7 916.637 43.9963 916.674 44.039L923 51.5L929.329 44.0353C929.362 43.9955 929.588 43.7 929.588 43.7L929.589 43.6978C930.669 42.2747 931.253 40.5366 931.25 38.75C931.247 36.5628 930.377 34.4658 928.831 32.9192C927.284 31.3726 925.187 30.5026 923 30.5ZM923 41.75C922.407 41.75 921.827 41.5741 921.333 41.2444C920.84 40.9148 920.455 40.4462 920.228 39.8981C920.001 39.3499 919.942 38.7467 920.058 38.1647C920.173 37.5828 920.459 37.0482 920.879 36.6287C921.298 36.2091 921.833 35.9234 922.415 35.8076C922.997 35.6919 923.6 35.7513 924.148 35.9784C924.696 36.2054 925.165 36.5899 925.494 37.0833C925.824 37.5766 926 38.1567 926 38.75C925.999 39.5453 925.683 40.3078 925.12 40.8702C924.558 41.4326 923.795 41.749 923 41.75Z" fill="black"/>
<path d="M93 39H99C99.2652 39 99.5196 38.8946 99.7071 38.7071C99.8946 38.5196 100 38.2652 100 38V30C100 29.7348 99.8946 29.4804 99.7071 29.2929C99.5196 29.1054 99.2652 29 99 29H93C92.7348 29 92.4804 29.1054 92.2929 29.2929C92.1054 29.4804 92 29.7348 92 30V38C92 38.2652 92.1054 38.5196 92.2929 38.7071C92.4804 38.8946 92.7348 39 93 39ZM92 46C92 46.2652 92.1054 46.5196 92.2929 46.7071C92.4804 46.8946 92.7348 47 93 47H99C99.2652 47 99.5196 46.8946 99.7071 46.7071C99.8946 46.5196 100 46.2652 100 46V42C100 41.7348 99.8946 41.4804 99.7071 41.2929C99.5196 41.1054 99.2652 41 99 41H93C92.7348 41 92.4804 41.1054 92.2929 41.2929C92.1054 41.4804 92 41.7348 92 42V46ZM102 46C102 46.2652 102.105 46.5196 102.293 46.7071C102.48 46.8946 102.735 47 103 47H109C109.265 47 109.52 46.8946 109.707 46.7071C109.895 46.5196 110 46.2652 110 46V39C110 38.7348 109.895 38.4804 109.707 38.2929C109.52 38.1054 109.265 38 109 38H103C102.735 38 102.48 38.1054 102.293 38.2929C102.105 38.4804 102 38.7348 102 39V46ZM103 36H109C109.265 36 109.52 35.8946 109.707 35.7071C109.895 35.5196 110 35.2652 110 35V30C110 29.7348 109.895 29.4804 109.707 29.2929C109.52 29.1054 109.265 29 109 29H103C102.735 29 102.48 29.1054 102.293 29.2929C102.105 29.4804 102 29.7348 102 30V35C102 35.2652 102.105 35.5196 102.293 35.7071C102.48 35.8946 102.735 36 103 36Z" fill="black"/>
<path d="M876.761 89V74.4545H878.523V87.4375H885.284V89H876.761ZM892.216 89.2273C891.231 89.2273 890.367 88.9929 889.624 88.5241C888.885 88.0554 888.307 87.3996 887.891 86.5568C887.479 85.714 887.273 84.7292 887.273 83.6023C887.273 82.4659 887.479 81.474 887.891 80.6264C888.307 79.7789 888.885 79.1207 889.624 78.652C890.367 78.1832 891.231 77.9489 892.216 77.9489C893.201 77.9489 894.063 78.1832 894.801 78.652C895.545 79.1207 896.122 79.7789 896.534 80.6264C896.951 81.474 897.159 82.4659 897.159 83.6023C897.159 84.7292 896.951 85.714 896.534 86.5568C896.122 87.3996 895.545 88.0554 894.801 88.5241C894.063 88.9929 893.201 89.2273 892.216 89.2273ZM892.216 87.7216C892.964 87.7216 893.58 87.5298 894.062 87.1463C894.545 86.7628 894.903 86.2585 895.135 85.6335C895.367 85.0085 895.483 84.3314 895.483 83.6023C895.483 82.8731 895.367 82.1937 895.135 81.5639C894.903 80.9342 894.545 80.4252 894.062 80.0369C893.58 79.6487 892.964 79.4545 892.216 79.4545C891.468 79.4545 890.852 79.6487 890.369 80.0369C889.886 80.4252 889.529 80.9342 889.297 81.5639C889.065 82.1937 888.949 82.8731 888.949 83.6023C888.949 84.3314 889.065 85.0085 889.297 85.6335C889.529 86.2585 889.886 86.7628 890.369 87.1463C890.852 87.5298 891.468 87.7216 892.216 87.7216ZM904.15 89.2273C903.127 89.2273 902.246 88.9858 901.507 88.5028C900.769 88.0199 900.201 87.3546 899.803 86.5071C899.405 85.6596 899.206 84.6913 899.206 83.6023C899.206 82.4943 899.41 81.5166 899.817 80.669C900.229 79.8168 900.802 79.1515 901.536 78.6733C902.275 78.1903 903.136 77.9489 904.121 77.9489C904.888 77.9489 905.579 78.0909 906.195 78.375C906.81 78.6591 907.315 79.0568 907.708 79.5682C908.101 80.0795 908.345 80.6761 908.439 81.358H906.763C906.635 80.8608 906.351 80.4205 905.911 80.0369C905.475 79.6487 904.888 79.4545 904.15 79.4545C903.496 79.4545 902.923 79.625 902.431 79.9659C901.943 80.3021 901.562 80.7779 901.287 81.3935C901.017 82.0043 900.882 82.7216 900.882 83.5455C900.882 84.3883 901.015 85.1222 901.28 85.7472C901.55 86.3722 901.929 86.8575 902.417 87.2031C902.909 87.5488 903.487 87.7216 904.15 87.7216C904.585 87.7216 904.98 87.6458 905.336 87.4943C905.691 87.3428 905.991 87.125 906.238 86.8409C906.484 86.5568 906.659 86.2159 906.763 85.8182H908.439C908.345 86.4621 908.11 87.0421 907.736 87.5582C907.367 88.0696 906.877 88.4768 906.266 88.7798C905.66 89.0781 904.954 89.2273 904.15 89.2273ZM914.1 89.2557C913.408 89.2557 912.781 89.1255 912.218 88.8651C911.654 88.5999 911.207 88.2188 910.875 87.7216C910.544 87.2197 910.378 86.6136 910.378 85.9034C910.378 85.2784 910.501 84.7718 910.748 84.3835C910.994 83.9905 911.323 83.6828 911.735 83.4602C912.147 83.2377 912.601 83.072 913.098 82.9631C913.6 82.8494 914.105 82.7595 914.611 82.6932C915.274 82.608 915.811 82.544 916.223 82.5014C916.64 82.4541 916.943 82.3759 917.132 82.267C917.327 82.1581 917.424 81.9687 917.424 81.6989V81.642C917.424 80.9413 917.232 80.3968 916.848 80.0085C916.47 79.6203 915.894 79.4261 915.123 79.4261C914.322 79.4261 913.695 79.6013 913.24 79.9517C912.786 80.3021 912.466 80.6761 912.282 81.0739L910.691 80.5057C910.975 79.8428 911.354 79.3267 911.827 78.9574C912.305 78.5833 912.826 78.3229 913.39 78.1761C913.958 78.0246 914.516 77.9489 915.066 77.9489C915.416 77.9489 915.819 77.9915 916.273 78.0767C916.732 78.1572 917.175 78.3253 917.601 78.581C918.032 78.8366 918.39 79.2225 918.674 79.7386C918.958 80.2547 919.1 80.946 919.1 81.8125V89H917.424V87.5227H917.338C917.225 87.7595 917.035 88.0128 916.77 88.2827C916.505 88.5526 916.152 88.7822 915.712 88.9716C915.272 89.161 914.734 89.2557 914.1 89.2557ZM914.355 87.75C915.018 87.75 915.577 87.6198 916.032 87.3594C916.491 87.099 916.837 86.7628 917.069 86.3509C917.305 85.9389 917.424 85.5057 917.424 85.0511V83.517C917.353 83.6023 917.196 83.6804 916.955 83.7514C916.718 83.8177 916.444 83.8769 916.131 83.929C915.823 83.9763 915.523 84.0189 915.229 84.0568C914.94 84.09 914.706 84.1184 914.526 84.142C914.09 84.1989 913.683 84.2912 913.304 84.419C912.93 84.5421 912.627 84.7292 912.395 84.9801C912.168 85.2263 912.054 85.5625 912.054 85.9886C912.054 86.571 912.27 87.0114 912.701 87.3097C913.136 87.6032 913.688 87.75 914.355 87.75ZM926.903 78.0909V79.5114H921.25V78.0909H926.903ZM922.898 75.4773H924.574V85.875C924.574 86.3485 924.643 86.7036 924.78 86.9403C924.922 87.1723 925.102 87.3286 925.32 87.4091C925.542 87.4848 925.777 87.5227 926.023 87.5227C926.207 87.5227 926.359 87.5133 926.477 87.4943C926.596 87.4706 926.69 87.4517 926.761 87.4375L927.102 88.9432C926.989 88.9858 926.83 89.0284 926.626 89.071C926.423 89.1184 926.165 89.142 925.852 89.142C925.379 89.142 924.915 89.0402 924.46 88.8366C924.01 88.633 923.636 88.3229 923.338 87.9062C923.045 87.4896 922.898 86.964 922.898 86.3295V75.4773ZM933.881 89.2273C932.83 89.2273 931.924 88.9953 931.161 88.5312C930.404 88.0625 929.819 87.4091 929.407 86.571C929 85.7282 928.796 84.7481 928.796 83.6307C928.796 82.5133 929 81.5284 929.407 80.6761C929.819 79.8191 930.392 79.1515 931.126 78.6733C931.864 78.1903 932.726 77.9489 933.711 77.9489C934.279 77.9489 934.84 78.0436 935.394 78.233C935.948 78.4223 936.452 78.7301 936.907 79.1562C937.362 79.5777 937.724 80.1364 937.994 80.8324C938.263 81.5284 938.398 82.3854 938.398 83.4034V84.1136H929.989V82.6648H936.694C936.694 82.0492 936.571 81.5 936.325 81.017C936.083 80.5341 935.737 80.1529 935.288 79.8736C934.843 79.5942 934.317 79.4545 933.711 79.4545C933.043 79.4545 932.466 79.6203 931.978 79.9517C931.495 80.2784 931.123 80.7045 930.863 81.2301C930.603 81.7557 930.472 82.3191 930.472 82.9205V83.8864C930.472 84.7102 930.614 85.4086 930.898 85.9815C931.187 86.5497 931.587 86.983 932.099 87.2812C932.61 87.5748 933.204 87.7216 933.881 87.7216C934.322 87.7216 934.719 87.66 935.075 87.5369C935.434 87.4091 935.745 87.2197 936.005 86.9688C936.265 86.7131 936.467 86.3958 936.609 86.017L938.228 86.4716C938.058 87.0208 937.771 87.5038 937.369 87.9205C936.966 88.3324 936.469 88.6544 935.877 88.8864C935.285 89.1136 934.62 89.2273 933.881 89.2273ZM956.346 74.4545H958.107V84.0852C958.107 85.0795 957.873 85.9673 957.404 86.7486C956.94 87.5251 956.284 88.1383 955.437 88.5881C954.589 89.0331 953.595 89.2557 952.454 89.2557C951.313 89.2557 950.318 89.0331 949.471 88.5881C948.623 88.1383 947.965 87.5251 947.496 86.7486C947.032 85.9673 946.8 85.0795 946.8 84.0852V74.4545H948.562V83.9432C948.562 84.6534 948.718 85.2855 949.031 85.8395C949.343 86.3887 949.788 86.822 950.366 87.1392C950.948 87.4517 951.644 87.608 952.454 87.608C953.263 87.608 953.96 87.4517 954.542 87.1392C955.124 86.822 955.569 86.3887 955.877 85.8395C956.19 85.2855 956.346 84.6534 956.346 83.9432V74.4545ZM969.125 80.5341L967.619 80.9602C967.524 80.7093 967.385 80.4654 967.2 80.2287C967.02 79.9872 966.774 79.7884 966.461 79.6321C966.149 79.4759 965.749 79.3977 965.261 79.3977C964.593 79.3977 964.037 79.5516 963.592 79.8594C963.152 80.1624 962.931 80.5483 962.931 81.017C962.931 81.4337 963.083 81.7628 963.386 82.0043C963.689 82.2457 964.163 82.447 964.806 82.608L966.426 83.0057C967.401 83.2424 968.128 83.6046 968.606 84.0923C969.084 84.5753 969.324 85.1979 969.324 85.9602C969.324 86.5852 969.144 87.1439 968.784 87.6364C968.429 88.1288 967.931 88.517 967.292 88.8011C966.653 89.0852 965.91 89.2273 965.062 89.2273C963.949 89.2273 963.029 88.9858 962.299 88.5028C961.57 88.0199 961.109 87.3144 960.914 86.3864L962.505 85.9886C962.657 86.5758 962.943 87.0161 963.365 87.3097C963.791 87.6032 964.347 87.75 965.034 87.75C965.815 87.75 966.435 87.5843 966.895 87.2528C967.359 86.9167 967.591 86.5142 967.591 86.0455C967.591 85.6667 967.458 85.3494 967.193 85.0938C966.928 84.8333 966.52 84.6392 965.971 84.5114L964.153 84.0852C963.154 83.8485 962.42 83.4815 961.951 82.9844C961.487 82.4825 961.255 81.8551 961.255 81.1023C961.255 80.4867 961.428 79.9422 961.774 79.4688C962.124 78.9953 962.6 78.6236 963.201 78.3537C963.807 78.0838 964.494 77.9489 965.261 77.9489C966.341 77.9489 967.188 78.1856 967.804 78.6591C968.424 79.1326 968.864 79.7576 969.125 80.5341Z" fill="black"/>
<path d="M308.25 89H303.761V74.4545H308.449C309.86 74.4545 311.067 74.7457 312.071 75.3281C313.075 75.9058 313.844 76.7367 314.379 77.821C314.914 78.9006 315.182 80.1932 315.182 81.6989C315.182 83.214 314.912 84.5185 314.372 85.6122C313.832 86.7012 313.046 87.5393 312.014 88.1264C310.982 88.7088 309.727 89 308.25 89ZM305.523 87.4375H308.136C309.339 87.4375 310.336 87.2055 311.126 86.7415C311.917 86.2775 312.507 85.617 312.895 84.7599C313.283 83.9029 313.477 82.8826 313.477 81.6989C313.477 80.5246 313.286 79.5137 312.902 78.6662C312.518 77.8139 311.946 77.1605 311.183 76.706C310.421 76.2467 309.472 76.017 308.335 76.017H305.523V87.4375ZM322.341 89.2273C321.356 89.2273 320.492 88.9929 319.749 88.5241C319.01 88.0554 318.432 87.3996 318.016 86.5568C317.604 85.714 317.398 84.7292 317.398 83.6023C317.398 82.4659 317.604 81.474 318.016 80.6264C318.432 79.7789 319.01 79.1207 319.749 78.652C320.492 78.1832 321.356 77.9489 322.341 77.9489C323.326 77.9489 324.188 78.1832 324.926 78.652C325.67 79.1207 326.247 79.7789 326.659 80.6264C327.076 81.474 327.284 82.4659 327.284 83.6023C327.284 84.7292 327.076 85.714 326.659 86.5568C326.247 87.3996 325.67 88.0554 324.926 88.5241C324.188 88.9929 323.326 89.2273 322.341 89.2273ZM322.341 87.7216C323.089 87.7216 323.705 87.5298 324.188 87.1463C324.67 86.7628 325.028 86.2585 325.26 85.6335C325.492 85.0085 325.608 84.3314 325.608 83.6023C325.608 82.8731 325.492 82.1937 325.26 81.5639C325.028 80.9342 324.67 80.4252 324.188 80.0369C323.705 79.6487 323.089 79.4545 322.341 79.4545C321.593 79.4545 320.977 79.6487 320.494 80.0369C320.011 80.4252 319.654 80.9342 319.422 81.5639C319.19 82.1937 319.074 82.8731 319.074 83.6023C319.074 84.3314 319.19 85.0085 319.422 85.6335C319.654 86.2585 320.011 86.7628 320.494 87.1463C320.977 87.5298 321.593 87.7216 322.341 87.7216ZM331.519 82.4375V89H329.843V78.0909H331.462V79.7955H331.604C331.86 79.2415 332.248 78.7964 332.769 78.4602C333.29 78.1193 333.962 77.9489 334.786 77.9489C335.525 77.9489 336.171 78.1004 336.725 78.4034C337.279 78.7017 337.71 79.1562 338.017 79.767C338.325 80.3731 338.479 81.1402 338.479 82.0682V89H336.803V82.1818C336.803 81.3248 336.58 80.6572 336.135 80.179C335.69 79.696 335.079 79.4545 334.303 79.4545C333.768 79.4545 333.29 79.5705 332.868 79.8026C332.452 80.0346 332.123 80.3731 331.881 80.8182C331.64 81.2633 331.519 81.803 331.519 82.4375ZM345.974 89.2273C344.989 89.2273 344.125 88.9929 343.381 88.5241C342.643 88.0554 342.065 87.3996 341.648 86.5568C341.237 85.714 341.031 84.7292 341.031 83.6023C341.031 82.4659 341.237 81.474 341.648 80.6264C342.065 79.7789 342.643 79.1207 343.381 78.652C344.125 78.1832 344.989 77.9489 345.974 77.9489C346.959 77.9489 347.82 78.1832 348.559 78.652C349.302 79.1207 349.88 79.7789 350.292 80.6264C350.709 81.474 350.917 82.4659 350.917 83.6023C350.917 84.7292 350.709 85.714 350.292 86.5568C349.88 87.3996 349.302 88.0554 348.559 88.5241C347.82 88.9929 346.959 89.2273 345.974 89.2273ZM345.974 87.7216C346.722 87.7216 347.337 87.5298 347.82 87.1463C348.303 86.7628 348.661 86.2585 348.893 85.6335C349.125 85.0085 349.241 84.3314 349.241 83.6023C349.241 82.8731 349.125 82.1937 348.893 81.5639C348.661 80.9342 348.303 80.4252 347.82 80.0369C347.337 79.6487 346.722 79.4545 345.974 79.4545C345.226 79.4545 344.61 79.6487 344.127 80.0369C343.644 80.4252 343.287 80.9342 343.055 81.5639C342.823 82.1937 342.707 82.8731 342.707 83.6023C342.707 84.3314 342.823 85.0085 343.055 85.6335C343.287 86.2585 343.644 86.7628 344.127 87.1463C344.61 87.5298 345.226 87.7216 345.974 87.7216ZM353.475 89V78.0909H355.095V79.7386H355.208C355.407 79.1989 355.767 78.7609 356.288 78.4247C356.809 78.0885 357.396 77.9205 358.049 77.9205C358.172 77.9205 358.326 77.9228 358.511 77.9276C358.696 77.9323 358.835 77.9394 358.93 77.9489V79.6534C358.873 79.6392 358.743 79.6179 358.539 79.5895C358.341 79.5563 358.13 79.5398 357.907 79.5398C357.377 79.5398 356.904 79.651 356.487 79.8736C356.075 80.0914 355.748 80.3944 355.507 80.7827C355.27 81.1662 355.152 81.6042 355.152 82.0966V89H353.475ZM366.769 89V74.4545H371.684C372.825 74.4545 373.758 74.6605 374.482 75.0724C375.211 75.4796 375.751 76.0312 376.102 76.7273C376.452 77.4233 376.627 78.1998 376.627 79.0568C376.627 79.9138 376.452 80.6927 376.102 81.3935C375.756 82.0942 375.221 82.6529 374.496 83.0696C373.772 83.4815 372.844 83.6875 371.712 83.6875H368.19V82.125H371.656C372.437 82.125 373.064 81.9901 373.538 81.7202C374.011 81.4503 374.354 81.0857 374.567 80.6264C374.785 80.1624 374.894 79.6392 374.894 79.0568C374.894 78.4744 374.785 77.9536 374.567 77.4943C374.354 77.035 374.009 76.6752 373.531 76.4148C373.052 76.1496 372.418 76.017 371.627 76.017H368.531V89H366.769ZM379.237 89V78.0909H380.857V79.7386H380.97C381.169 79.1989 381.529 78.7609 382.05 78.4247C382.571 78.0885 383.158 77.9205 383.811 77.9205C383.934 77.9205 384.088 77.9228 384.273 77.9276C384.457 77.9323 384.597 77.9394 384.692 77.9489V79.6534C384.635 79.6392 384.505 79.6179 384.301 79.5895C384.102 79.5563 383.892 79.5398 383.669 79.5398C383.139 79.5398 382.665 79.651 382.249 79.8736C381.837 80.0914 381.51 80.3944 381.268 80.7827C381.032 81.1662 380.913 81.6042 380.913 82.0966V89H379.237ZM390.778 89.2273C389.794 89.2273 388.929 88.9929 388.186 88.5241C387.447 88.0554 386.87 87.3996 386.453 86.5568C386.041 85.714 385.835 84.7292 385.835 83.6023C385.835 82.4659 386.041 81.474 386.453 80.6264C386.87 79.7789 387.447 79.1207 388.186 78.652C388.929 78.1832 389.794 77.9489 390.778 77.9489C391.763 77.9489 392.625 78.1832 393.364 78.652C394.107 79.1207 394.685 79.7789 395.097 80.6264C395.513 81.474 395.722 82.4659 395.722 83.6023C395.722 84.7292 395.513 85.714 395.097 86.5568C394.685 87.3996 394.107 88.0554 393.364 88.5241C392.625 88.9929 391.763 89.2273 390.778 89.2273ZM390.778 87.7216C391.527 87.7216 392.142 87.5298 392.625 87.1463C393.108 86.7628 393.465 86.2585 393.697 85.6335C393.929 85.0085 394.045 84.3314 394.045 83.6023C394.045 82.8731 393.929 82.1937 393.697 81.5639C393.465 80.9342 393.108 80.4252 392.625 80.0369C392.142 79.6487 391.527 79.4545 390.778 79.4545C390.03 79.4545 389.415 79.6487 388.932 80.0369C388.449 80.4252 388.091 80.9342 387.859 81.5639C387.627 82.1937 387.511 82.8731 387.511 83.6023C387.511 84.3314 387.627 85.0085 387.859 85.6335C388.091 86.2585 388.449 86.7628 388.932 87.1463C389.415 87.5298 390.03 87.7216 390.778 87.7216ZM403.138 78.0909V79.5114H397.257V78.0909H403.138ZM399.019 89V76.5852C399.019 75.9602 399.166 75.4394 399.459 75.0227C399.753 74.6061 400.134 74.2936 400.603 74.0852C401.071 73.8769 401.566 73.7727 402.087 73.7727C402.499 73.7727 402.835 73.8059 403.096 73.8722C403.356 73.9384 403.55 74 403.678 74.0568L403.195 75.5057C403.11 75.4773 402.991 75.4418 402.84 75.3991C402.693 75.3565 402.499 75.3352 402.257 75.3352C401.703 75.3352 401.303 75.4749 401.057 75.7543C400.816 76.0336 400.695 76.4432 400.695 76.983V89H399.019ZM405.487 89V78.0909H407.163V89H405.487ZM406.339 76.2727C406.013 76.2727 405.731 76.1615 405.494 75.9389C405.262 75.7164 405.146 75.4489 405.146 75.1364C405.146 74.8239 405.262 74.5563 405.494 74.3338C405.731 74.1113 406.013 74 406.339 74C406.666 74 406.946 74.1113 407.178 74.3338C407.414 74.5563 407.533 74.8239 407.533 75.1364C407.533 75.4489 407.414 75.7164 407.178 75.9389C406.946 76.1615 406.666 76.2727 406.339 76.2727ZM411.909 74.4545V89H410.233V74.4545H411.909ZM419.553 89.2273C418.502 89.2273 417.595 88.9953 416.833 88.5312C416.076 88.0625 415.491 87.4091 415.079 86.571C414.672 85.7282 414.468 84.7481 414.468 83.6307C414.468 82.5133 414.672 81.5284 415.079 80.6761C415.491 79.8191 416.064 79.1515 416.798 78.6733C417.536 78.1903 418.398 77.9489 419.383 77.9489C419.951 77.9489 420.512 78.0436 421.066 78.233C421.62 78.4223 422.124 78.7301 422.579 79.1562C423.033 79.5777 423.396 80.1364 423.665 80.8324C423.935 81.5284 424.07 82.3854 424.07 83.4034V84.1136H415.661V82.6648H422.366C422.366 82.0492 422.243 81.5 421.996 81.017C421.755 80.5341 421.409 80.1529 420.96 79.8736C420.514 79.5942 419.989 79.4545 419.383 79.4545C418.715 79.4545 418.138 79.6203 417.65 79.9517C417.167 80.2784 416.795 80.7045 416.535 81.2301C416.274 81.7557 416.144 82.3191 416.144 82.9205V83.8864C416.144 84.7102 416.286 85.4086 416.57 85.9815C416.859 86.5497 417.259 86.983 417.771 87.2812C418.282 87.5748 418.876 87.7216 419.553 87.7216C419.994 87.7216 420.391 87.66 420.746 87.5369C421.106 87.4091 421.416 87.2197 421.677 86.9688C421.937 86.7131 422.138 86.3958 422.281 86.017L423.9 86.4716C423.729 87.0208 423.443 87.5038 423.04 87.9205C422.638 88.3324 422.141 88.6544 421.549 88.8864C420.957 89.1136 420.292 89.2273 419.553 89.2273Z" fill="black"/>
<path d="M55.25 89H50.7614V74.4545H55.4489C56.8598 74.4545 58.0672 74.7457 59.071 75.3281C60.0748 75.9058 60.8442 76.7367 61.3793 77.821C61.9143 78.9006 62.1818 80.1932 62.1818 81.6989C62.1818 83.214 61.9119 84.5185 61.3722 85.6122C60.8324 86.7012 60.0464 87.5393 59.0142 88.1264C57.982 88.7088 56.7273 89 55.25 89ZM52.5227 87.4375H55.1364C56.339 87.4375 57.3357 87.2055 58.1264 86.7415C58.9171 86.2775 59.5066 85.617 59.8949 84.7599C60.2831 83.9029 60.4773 82.8826 60.4773 81.6989C60.4773 80.5246 60.2855 79.5137 59.902 78.6662C59.5185 77.8139 58.9455 77.1605 58.1832 76.706C57.4209 76.2467 56.4716 76.017 55.3352 76.017H52.5227V87.4375ZM68.1193 89.2557C67.428 89.2557 66.8007 89.1255 66.2372 88.8651C65.6738 88.5999 65.2263 88.2188 64.8949 87.7216C64.5634 87.2197 64.3977 86.6136 64.3977 85.9034C64.3977 85.2784 64.5208 84.7718 64.767 84.3835C65.0133 83.9905 65.3423 83.6828 65.7543 83.4602C66.1662 83.2377 66.6207 83.072 67.1179 82.9631C67.6198 82.8494 68.1241 82.7595 68.6307 82.6932C69.2936 82.608 69.831 82.544 70.2429 82.5014C70.6596 82.4541 70.9626 82.3759 71.152 82.267C71.3461 82.1581 71.4432 81.9687 71.4432 81.6989V81.642C71.4432 80.9413 71.2514 80.3968 70.8679 80.0085C70.4891 79.6203 69.9138 79.4261 69.142 79.4261C68.3419 79.4261 67.7145 79.6013 67.2599 79.9517C66.8054 80.3021 66.4858 80.6761 66.3011 81.0739L64.7102 80.5057C64.9943 79.8428 65.3731 79.3267 65.8466 78.9574C66.3248 78.5833 66.8456 78.3229 67.4091 78.1761C67.9773 78.0246 68.536 77.9489 69.0852 77.9489C69.4356 77.9489 69.8381 77.9915 70.2926 78.0767C70.7519 78.1572 71.1946 78.3253 71.6207 78.581C72.0516 78.8366 72.4091 79.2225 72.6932 79.7386C72.9773 80.2547 73.1193 80.946 73.1193 81.8125V89H71.4432V87.5227H71.358C71.2443 87.7595 71.0549 88.0128 70.7898 88.2827C70.5246 88.5526 70.1719 88.7822 69.7315 88.9716C69.2912 89.161 68.7538 89.2557 68.1193 89.2557ZM68.375 87.75C69.0379 87.75 69.5966 87.6198 70.0511 87.3594C70.5104 87.099 70.8561 86.7628 71.0881 86.3509C71.3248 85.9389 71.4432 85.5057 71.4432 85.0511V83.517C71.3722 83.6023 71.2159 83.6804 70.9744 83.7514C70.7377 83.8177 70.4631 83.8769 70.1506 83.929C69.8428 83.9763 69.5421 84.0189 69.2486 84.0568C68.9598 84.09 68.7254 84.1184 68.5455 84.142C68.1098 84.1989 67.7027 84.2912 67.3239 84.419C66.9498 84.5421 66.6468 84.7292 66.4148 84.9801C66.1875 85.2263 66.0739 85.5625 66.0739 85.9886C66.0739 86.571 66.2893 87.0114 66.7202 87.3097C67.1558 87.6032 67.7074 87.75 68.375 87.75ZM83.9059 80.5341L82.4002 80.9602C82.3055 80.7093 82.1658 80.4654 81.9812 80.2287C81.8013 79.9872 81.555 79.7884 81.2425 79.6321C80.93 79.4759 80.5299 79.3977 80.0423 79.3977C79.3746 79.3977 78.8183 79.5516 78.3732 79.8594C77.9329 80.1624 77.7127 80.5483 77.7127 81.017C77.7127 81.4337 77.8642 81.7628 78.1673 82.0043C78.4703 82.2457 78.9438 82.447 79.5877 82.608L81.207 83.0057C82.1824 83.2424 82.9092 83.6046 83.3874 84.0923C83.8656 84.5753 84.1048 85.1979 84.1048 85.9602C84.1048 86.5852 83.9248 87.1439 83.565 87.6364C83.2099 88.1288 82.7127 88.517 82.0735 88.8011C81.4343 89.0852 80.6909 89.2273 79.8434 89.2273C78.7307 89.2273 77.8098 88.9858 77.0806 88.5028C76.3514 88.0199 75.8898 87.3144 75.6957 86.3864L77.2866 85.9886C77.4381 86.5758 77.7246 87.0161 78.146 87.3097C78.5721 87.6032 79.1284 87.75 79.815 87.75C80.5962 87.75 81.2165 87.5843 81.6758 87.2528C82.1398 86.9167 82.3718 86.5142 82.3718 86.0455C82.3718 85.6667 82.2392 85.3494 81.9741 85.0938C81.7089 84.8333 81.3017 84.6392 80.7525 84.5114L78.9343 84.0852C77.9353 83.8485 77.2013 83.4815 76.7326 82.9844C76.2686 82.4825 76.0366 81.8551 76.0366 81.1023C76.0366 80.4867 76.2094 79.9422 76.555 79.4688C76.9054 78.9953 77.3813 78.6236 77.9826 78.3537C78.5887 78.0838 79.2752 77.9489 80.0423 77.9489C81.1218 77.9489 81.9693 78.1856 82.5849 78.6591C83.2051 79.1326 83.6455 79.7576 83.9059 80.5341ZM88.304 82.4375V89H86.6278V74.4545H88.304V79.7955H88.446C88.7017 79.232 89.0852 78.7846 89.5966 78.4531C90.1127 78.117 90.7992 77.9489 91.6562 77.9489C92.3996 77.9489 93.0507 78.098 93.6094 78.3963C94.1681 78.6899 94.6013 79.142 94.9091 79.7528C95.2216 80.3589 95.3778 81.1307 95.3778 82.0682V89H93.7017V82.1818C93.7017 81.3153 93.4768 80.6454 93.027 80.1719C92.5819 79.6937 91.964 79.4545 91.1733 79.4545C90.6241 79.4545 90.1316 79.5705 89.696 79.8026C89.2652 80.0346 88.9242 80.3731 88.6733 80.8182C88.4271 81.2633 88.304 81.803 88.304 82.4375ZM98.6715 89V74.4545H100.348V79.8239H100.49C100.613 79.6345 100.783 79.393 101.001 79.0994C101.224 78.8011 101.541 78.536 101.953 78.304C102.369 78.0672 102.933 77.9489 103.643 77.9489C104.562 77.9489 105.371 78.1785 106.072 78.6378C106.773 79.0971 107.32 79.7481 107.713 80.5909C108.106 81.4337 108.302 82.428 108.302 83.5739C108.302 84.7292 108.106 85.7306 107.713 86.5781C107.32 87.4209 106.775 88.0743 106.079 88.5384C105.383 88.9976 104.581 89.2273 103.672 89.2273C102.971 89.2273 102.41 89.1113 101.988 88.8793C101.567 88.6425 101.243 88.375 101.015 88.0767C100.788 87.7737 100.613 87.5227 100.49 87.3239H100.291V89H98.6715ZM100.319 83.5455C100.319 84.3693 100.44 85.0961 100.681 85.7259C100.923 86.3509 101.276 86.8409 101.74 87.196C102.204 87.5464 102.772 87.7216 103.444 87.7216C104.145 87.7216 104.73 87.5369 105.199 87.1676C105.672 86.7936 106.027 86.2917 106.264 85.6619C106.505 85.0275 106.626 84.322 106.626 83.5455C106.626 82.7784 106.508 82.0871 106.271 81.4716C106.039 80.8513 105.686 80.3613 105.213 80.0014C104.744 79.6368 104.154 79.4545 103.444 79.4545C102.762 79.4545 102.19 79.6274 101.725 79.973C101.261 80.3139 100.911 80.7921 100.674 81.4077C100.438 82.0185 100.319 82.7311 100.319 83.5455ZM115.298 89.2273C114.313 89.2273 113.449 88.9929 112.706 88.5241C111.967 88.0554 111.389 87.3996 110.973 86.5568C110.561 85.714 110.355 84.7292 110.355 83.6023C110.355 82.4659 110.561 81.474 110.973 80.6264C111.389 79.7789 111.967 79.1207 112.706 78.652C113.449 78.1832 114.313 77.9489 115.298 77.9489C116.283 77.9489 117.145 78.1832 117.883 78.652C118.627 79.1207 119.204 79.7789 119.616 80.6264C120.033 81.474 120.241 82.4659 120.241 83.6023C120.241 84.7292 120.033 85.714 119.616 86.5568C119.204 87.3996 118.627 88.0554 117.883 88.5241C117.145 88.9929 116.283 89.2273 115.298 89.2273ZM115.298 87.7216C116.046 87.7216 116.662 87.5298 117.145 87.1463C117.627 86.7628 117.985 86.2585 118.217 85.6335C118.449 85.0085 118.565 84.3314 118.565 83.6023C118.565 82.8731 118.449 82.1937 118.217 81.5639C117.985 80.9342 117.627 80.4252 117.145 80.0369C116.662 79.6487 116.046 79.4545 115.298 79.4545C114.55 79.4545 113.934 79.6487 113.451 80.0369C112.968 80.4252 112.611 80.9342 112.379 81.5639C112.147 82.1937 112.031 82.8731 112.031 83.6023C112.031 84.3314 112.147 85.0085 112.379 85.6335C112.611 86.2585 112.968 86.7628 113.451 87.1463C113.934 87.5298 114.55 87.7216 115.298 87.7216ZM126.01 89.2557C125.319 89.2557 124.691 89.1255 124.128 88.8651C123.564 88.5999 123.117 88.2188 122.786 87.7216C122.454 87.2197 122.288 86.6136 122.288 85.9034C122.288 85.2784 122.411 84.7718 122.658 84.3835C122.904 83.9905 123.233 83.6828 123.645 83.4602C124.057 83.2377 124.511 83.072 125.009 82.9631C125.51 82.8494 126.015 82.7595 126.521 82.6932C127.184 82.608 127.722 82.544 128.134 82.5014C128.55 82.4541 128.853 82.3759 129.043 82.267C129.237 82.1581 129.334 81.9687 129.334 81.6989V81.642C129.334 80.9413 129.142 80.3968 128.759 80.0085C128.38 79.6203 127.804 79.4261 127.033 79.4261C126.232 79.4261 125.605 79.6013 125.151 79.9517C124.696 80.3021 124.376 80.6761 124.192 81.0739L122.601 80.5057C122.885 79.8428 123.264 79.3267 123.737 78.9574C124.215 78.5833 124.736 78.3229 125.3 78.1761C125.868 78.0246 126.427 77.9489 126.976 77.9489C127.326 77.9489 127.729 77.9915 128.183 78.0767C128.643 78.1572 129.085 78.3253 129.511 78.581C129.942 78.8366 130.3 79.2225 130.584 79.7386C130.868 80.2547 131.01 80.946 131.01 81.8125V89H129.334V87.5227H129.249C129.135 87.7595 128.946 88.0128 128.68 88.2827C128.415 88.5526 128.063 88.7822 127.622 88.9716C127.182 89.161 126.644 89.2557 126.01 89.2557ZM126.266 87.75C126.929 87.75 127.487 87.6198 127.942 87.3594C128.401 87.099 128.747 86.7628 128.979 86.3509C129.215 85.9389 129.334 85.5057 129.334 85.0511V83.517C129.263 83.6023 129.107 83.6804 128.865 83.7514C128.628 83.8177 128.354 83.8769 128.041 83.929C127.733 83.9763 127.433 84.0189 127.139 84.0568C126.85 84.09 126.616 84.1184 126.436 84.142C126 84.1989 125.593 84.2912 125.214 84.419C124.84 84.5421 124.537 84.7292 124.305 84.9801C124.078 85.2263 123.964 85.5625 123.964 85.9886C123.964 86.571 124.18 87.0114 124.611 87.3097C125.046 87.6032 125.598 87.75 126.266 87.75ZM134.069 89V78.0909H135.689V79.7386H135.802C136.001 79.1989 136.361 78.7609 136.882 78.4247C137.403 78.0885 137.99 77.9205 138.643 77.9205C138.766 77.9205 138.92 77.9228 139.105 77.9276C139.289 77.9323 139.429 77.9394 139.524 77.9489V79.6534C139.467 79.6392 139.337 79.6179 139.133 79.5895C138.934 79.5563 138.724 79.5398 138.501 79.5398C137.971 79.5398 137.497 79.651 137.081 79.8736C136.669 80.0914 136.342 80.3944 136.1 80.7827C135.864 81.1662 135.745 81.6042 135.745 82.0966V89H134.069ZM145.298 89.2273C144.389 89.2273 143.586 88.9976 142.89 88.5384C142.194 88.0743 141.65 87.4209 141.257 86.5781C140.864 85.7306 140.667 84.7292 140.667 83.5739C140.667 82.428 140.864 81.4337 141.257 80.5909C141.65 79.7481 142.197 79.0971 142.897 78.6378C143.598 78.1785 144.408 77.9489 145.326 77.9489C146.037 77.9489 146.598 78.0672 147.01 78.304C147.426 78.536 147.743 78.8011 147.961 79.0994C148.184 79.393 148.357 79.6345 148.48 79.8239H148.622V74.4545H150.298V89H148.679V87.3239H148.48C148.357 87.5227 148.181 87.7737 147.954 88.0767C147.727 88.375 147.403 88.6425 146.981 88.8793C146.56 89.1113 145.999 89.2273 145.298 89.2273ZM145.525 87.7216C146.198 87.7216 146.766 87.5464 147.23 87.196C147.694 86.8409 148.047 86.3509 148.288 85.7259C148.529 85.0961 148.65 84.3693 148.65 83.5455C148.65 82.7311 148.532 82.0185 148.295 81.4077C148.058 80.7921 147.708 80.3139 147.244 79.973C146.78 79.6274 146.207 79.4545 145.525 79.4545C144.815 79.4545 144.223 79.6368 143.75 80.0014C143.281 80.3613 142.928 80.8513 142.691 81.4716C142.459 82.0871 142.343 82.7784 142.343 83.5455C142.343 84.322 142.462 85.0275 142.699 85.6619C142.94 86.2917 143.295 86.7936 143.764 87.1676C144.237 87.5369 144.824 87.7216 145.525 87.7216Z" fill="black"/>
<path d="M581.25 89H576.761V74.4545H581.449C582.86 74.4545 584.067 74.7457 585.071 75.3281C586.075 75.9058 586.844 76.7367 587.379 77.821C587.914 78.9006 588.182 80.1932 588.182 81.6989C588.182 83.214 587.912 84.5185 587.372 85.6122C586.832 86.7012 586.046 87.5393 585.014 88.1264C583.982 88.7088 582.727 89 581.25 89ZM578.523 87.4375H581.136C582.339 87.4375 583.336 87.2055 584.126 86.7415C584.917 86.2775 585.507 85.617 585.895 84.7599C586.283 83.9029 586.477 82.8826 586.477 81.6989C586.477 80.5246 586.286 79.5137 585.902 78.6662C585.518 77.8139 584.946 77.1605 584.183 76.706C583.421 76.2467 582.472 76.017 581.335 76.017H578.523V87.4375ZM595.341 89.2273C594.356 89.2273 593.492 88.9929 592.749 88.5241C592.01 88.0554 591.432 87.3996 591.016 86.5568C590.604 85.714 590.398 84.7292 590.398 83.6023C590.398 82.4659 590.604 81.474 591.016 80.6264C591.432 79.7789 592.01 79.1207 592.749 78.652C593.492 78.1832 594.356 77.9489 595.341 77.9489C596.326 77.9489 597.188 78.1832 597.926 78.652C598.67 79.1207 599.247 79.7789 599.659 80.6264C600.076 81.474 600.284 82.4659 600.284 83.6023C600.284 84.7292 600.076 85.714 599.659 86.5568C599.247 87.3996 598.67 88.0554 597.926 88.5241C597.188 88.9929 596.326 89.2273 595.341 89.2273ZM595.341 87.7216C596.089 87.7216 596.705 87.5298 597.188 87.1463C597.67 86.7628 598.028 86.2585 598.26 85.6335C598.492 85.0085 598.608 84.3314 598.608 83.6023C598.608 82.8731 598.492 82.1937 598.26 81.5639C598.028 80.9342 597.67 80.4252 597.188 80.0369C596.705 79.6487 596.089 79.4545 595.341 79.4545C594.593 79.4545 593.977 79.6487 593.494 80.0369C593.011 80.4252 592.654 80.9342 592.422 81.5639C592.19 82.1937 592.074 82.8731 592.074 83.6023C592.074 84.3314 592.19 85.0085 592.422 85.6335C592.654 86.2585 593.011 86.7628 593.494 87.1463C593.977 87.5298 594.593 87.7216 595.341 87.7216ZM604.519 82.4375V89H602.843V78.0909H604.462V79.7955H604.604C604.86 79.2415 605.248 78.7964 605.769 78.4602C606.29 78.1193 606.962 77.9489 607.786 77.9489C608.525 77.9489 609.171 78.1004 609.725 78.4034C610.279 78.7017 610.71 79.1562 611.017 79.767C611.325 80.3731 611.479 81.1402 611.479 82.0682V89H609.803V82.1818C609.803 81.3248 609.58 80.6572 609.135 80.179C608.69 79.696 608.079 79.4545 607.303 79.4545C606.768 79.4545 606.29 79.5705 605.868 79.8026C605.452 80.0346 605.123 80.3731 604.881 80.8182C604.64 81.2633 604.519 81.803 604.519 82.4375ZM618.974 89.2273C617.989 89.2273 617.125 88.9929 616.381 88.5241C615.643 88.0554 615.065 87.3996 614.648 86.5568C614.237 85.714 614.031 84.7292 614.031 83.6023C614.031 82.4659 614.237 81.474 614.648 80.6264C615.065 79.7789 615.643 79.1207 616.381 78.652C617.125 78.1832 617.989 77.9489 618.974 77.9489C619.959 77.9489 620.82 78.1832 621.559 78.652C622.302 79.1207 622.88 79.7789 623.292 80.6264C623.709 81.474 623.917 82.4659 623.917 83.6023C623.917 84.7292 623.709 85.714 623.292 86.5568C622.88 87.3996 622.302 88.0554 621.559 88.5241C620.82 88.9929 619.959 89.2273 618.974 89.2273ZM618.974 87.7216C619.722 87.7216 620.337 87.5298 620.82 87.1463C621.303 86.7628 621.661 86.2585 621.893 85.6335C622.125 85.0085 622.241 84.3314 622.241 83.6023C622.241 82.8731 622.125 82.1937 621.893 81.5639C621.661 80.9342 621.303 80.4252 620.82 80.0369C620.337 79.6487 619.722 79.4545 618.974 79.4545C618.226 79.4545 617.61 79.6487 617.127 80.0369C616.644 80.4252 616.287 80.9342 616.055 81.5639C615.823 82.1937 615.707 82.8731 615.707 83.6023C615.707 84.3314 615.823 85.0085 616.055 85.6335C616.287 86.2585 616.644 86.7628 617.127 87.1463C617.61 87.5298 618.226 87.7216 618.974 87.7216ZM626.475 89V78.0909H628.095V79.7386H628.208C628.407 79.1989 628.767 78.7609 629.288 78.4247C629.809 78.0885 630.396 77.9205 631.049 77.9205C631.172 77.9205 631.326 77.9228 631.511 77.9276C631.696 77.9323 631.835 77.9394 631.93 77.9489V79.6534C631.873 79.6392 631.743 79.6179 631.539 79.5895C631.341 79.5563 631.13 79.5398 630.907 79.5398C630.377 79.5398 629.904 79.651 629.487 79.8736C629.075 80.0914 628.748 80.3944 628.507 80.7827C628.27 81.1662 628.152 81.6042 628.152 82.0966V89H626.475ZM639.769 89V74.4545H644.684C645.825 74.4545 646.758 74.6605 647.482 75.0724C648.211 75.4796 648.751 76.0312 649.102 76.7273C649.452 77.4233 649.627 78.1998 649.627 79.0568C649.627 79.9138 649.452 80.6927 649.102 81.3935C648.756 82.0942 648.221 82.6529 647.496 83.0696C646.772 83.4815 645.844 83.6875 644.712 83.6875H641.19V82.125H644.656C645.437 82.125 646.064 81.9901 646.538 81.7202C647.011 81.4503 647.354 81.0857 647.567 80.6264C647.785 80.1624 647.894 79.6392 647.894 79.0568C647.894 78.4744 647.785 77.9536 647.567 77.4943C647.354 77.035 647.009 76.6752 646.531 76.4148C646.052 76.1496 645.418 76.017 644.627 76.017H641.531V89H639.769ZM652.237 89V78.0909H653.857V79.7386H653.97C654.169 79.1989 654.529 78.7609 655.05 78.4247C655.571 78.0885 656.158 77.9205 656.811 77.9205C656.934 77.9205 657.088 77.9228 657.273 77.9276C657.457 77.9323 657.597 77.9394 657.692 77.9489V79.6534C657.635 79.6392 657.505 79.6179 657.301 79.5895C657.102 79.5563 656.892 79.5398 656.669 79.5398C656.139 79.5398 655.665 79.651 655.249 79.8736C654.837 80.0914 654.51 80.3944 654.268 80.7827C654.032 81.1662 653.913 81.6042 653.913 82.0966V89H652.237ZM663.778 89.2273C662.794 89.2273 661.929 88.9929 661.186 88.5241C660.447 88.0554 659.87 87.3996 659.453 86.5568C659.041 85.714 658.835 84.7292 658.835 83.6023C658.835 82.4659 659.041 81.474 659.453 80.6264C659.87 79.7789 660.447 79.1207 661.186 78.652C661.929 78.1832 662.794 77.9489 663.778 77.9489C664.763 77.9489 665.625 78.1832 666.364 78.652C667.107 79.1207 667.685 79.7789 668.097 80.6264C668.513 81.474 668.722 82.4659 668.722 83.6023C668.722 84.7292 668.513 85.714 668.097 86.5568C667.685 87.3996 667.107 88.0554 666.364 88.5241C665.625 88.9929 664.763 89.2273 663.778 89.2273ZM663.778 87.7216C664.527 87.7216 665.142 87.5298 665.625 87.1463C666.108 86.7628 666.465 86.2585 666.697 85.6335C666.929 85.0085 667.045 84.3314 667.045 83.6023C667.045 82.8731 666.929 82.1937 666.697 81.5639C666.465 80.9342 666.108 80.4252 665.625 80.0369C665.142 79.6487 664.527 79.4545 663.778 79.4545C663.03 79.4545 662.415 79.6487 661.932 80.0369C661.449 80.4252 661.091 80.9342 660.859 81.5639C660.627 82.1937 660.511 82.8731 660.511 83.6023C660.511 84.3314 660.627 85.0085 660.859 85.6335C661.091 86.2585 661.449 86.7628 661.932 87.1463C662.415 87.5298 663.03 87.7216 663.778 87.7216ZM676.138 78.0909V79.5114H670.257V78.0909H676.138ZM672.019 89V76.5852C672.019 75.9602 672.166 75.4394 672.459 75.0227C672.753 74.6061 673.134 74.2936 673.603 74.0852C674.071 73.8769 674.566 73.7727 675.087 73.7727C675.499 73.7727 675.835 73.8059 676.096 73.8722C676.356 73.9384 676.55 74 676.678 74.0568L676.195 75.5057C676.11 75.4773 675.991 75.4418 675.84 75.3991C675.693 75.3565 675.499 75.3352 675.257 75.3352C674.703 75.3352 674.303 75.4749 674.057 75.7543C673.816 76.0336 673.695 76.4432 673.695 76.983V89H672.019ZM678.487 89V78.0909H680.163V89H678.487ZM679.339 76.2727C679.013 76.2727 678.731 76.1615 678.494 75.9389C678.262 75.7164 678.146 75.4489 678.146 75.1364C678.146 74.8239 678.262 74.5563 678.494 74.3338C678.731 74.1113 679.013 74 679.339 74C679.666 74 679.946 74.1113 680.178 74.3338C680.414 74.5563 680.533 74.8239 680.533 75.1364C680.533 75.4489 680.414 75.7164 680.178 75.9389C679.946 76.1615 679.666 76.2727 679.339 76.2727ZM684.909 74.4545V89H683.233V74.4545H684.909ZM692.553 89.2273C691.502 89.2273 690.595 88.9953 689.833 88.5312C689.076 88.0625 688.491 87.4091 688.079 86.571C687.672 85.7282 687.468 84.7481 687.468 83.6307C687.468 82.5133 687.672 81.5284 688.079 80.6761C688.491 79.8191 689.064 79.1515 689.798 78.6733C690.536 78.1903 691.398 77.9489 692.383 77.9489C692.951 77.9489 693.512 78.0436 694.066 78.233C694.62 78.4223 695.124 78.7301 695.579 79.1562C696.033 79.5777 696.396 80.1364 696.665 80.8324C696.935 81.5284 697.07 82.3854 697.07 83.4034V84.1136H688.661V82.6648H695.366C695.366 82.0492 695.243 81.5 694.996 81.017C694.755 80.5341 694.409 80.1529 693.96 79.8736C693.514 79.5942 692.989 79.4545 692.383 79.4545C691.715 79.4545 691.138 79.6203 690.65 79.9517C690.167 80.2784 689.795 80.7045 689.535 81.2301C689.274 81.7557 689.144 82.3191 689.144 82.9205V83.8864C689.144 84.7102 689.286 85.4086 689.57 85.9815C689.859 86.5497 690.259 86.983 690.771 87.2812C691.282 87.5748 691.876 87.7216 692.553 87.7216C692.994 87.7216 693.391 87.66 693.746 87.5369C694.106 87.4091 694.416 87.2197 694.677 86.9688C694.937 86.7131 695.138 86.3958 695.281 86.017L696.9 86.4716C696.729 87.0208 696.443 87.5038 696.04 87.9205C695.638 88.3324 695.141 88.6544 694.549 88.8864C693.957 89.1136 693.292 89.2273 692.553 89.2273ZM713.427 78.0909C713.342 77.3712 712.996 76.8125 712.39 76.4148C711.784 76.017 711.04 75.8182 710.16 75.8182C709.516 75.8182 708.952 75.9223 708.469 76.1307C707.991 76.339 707.617 76.6255 707.347 76.9901C707.082 77.3546 706.95 77.7689 706.95 78.233C706.95 78.6212 707.042 78.955 707.227 79.2344C707.416 79.509 707.657 79.7386 707.951 79.9233C708.245 80.1032 708.552 80.2524 708.874 80.3707C709.196 80.4844 709.492 80.5767 709.762 80.6477L711.239 81.0455C711.618 81.1449 712.04 81.2822 712.504 81.4574C712.972 81.6326 713.42 81.8717 713.846 82.1747C714.277 82.473 714.632 82.8565 714.911 83.3253C715.191 83.794 715.33 84.3693 715.33 85.0511C715.33 85.8371 715.124 86.5473 714.712 87.1818C714.305 87.8163 713.709 88.3205 712.923 88.6946C712.141 89.0687 711.192 89.2557 710.075 89.2557C709.033 89.2557 708.131 89.0876 707.369 88.7514C706.611 88.4152 706.014 87.9465 705.579 87.3452C705.148 86.7438 704.904 86.0455 704.847 85.25H706.665C706.713 85.7992 706.897 86.2538 707.219 86.6136C707.546 86.9687 707.958 87.2339 708.455 87.4091C708.957 87.5795 709.497 87.6648 710.075 87.6648C710.747 87.6648 711.351 87.5559 711.886 87.3381C712.421 87.1155 712.844 86.8078 713.157 86.4148C713.469 86.017 713.626 85.553 713.626 85.0227C713.626 84.5398 713.491 84.1468 713.221 83.8438C712.951 83.5407 712.596 83.2945 712.156 83.1051C711.715 82.9157 711.239 82.75 710.728 82.608L708.938 82.0966C707.802 81.7699 706.902 81.3035 706.239 80.6974C705.576 80.0914 705.245 79.2983 705.245 78.3182C705.245 77.5038 705.465 76.7936 705.906 76.1875C706.351 75.5767 706.947 75.1032 707.695 74.767C708.448 74.4261 709.289 74.2557 710.217 74.2557C711.154 74.2557 711.987 74.4238 712.717 74.7599C713.446 75.0914 714.023 75.5459 714.45 76.1236C714.88 76.7012 715.108 77.357 715.131 78.0909H713.427ZM722.573 89.2273C721.522 89.2273 720.615 88.9953 719.853 88.5312C719.095 88.0625 718.51 87.4091 718.098 86.571C717.691 85.7282 717.488 84.7481 717.488 83.6307C717.488 82.5133 717.691 81.5284 718.098 80.6761C718.51 79.8191 719.083 79.1515 719.817 78.6733C720.556 78.1903 721.417 77.9489 722.402 77.9489C722.971 77.9489 723.532 78.0436 724.086 78.233C724.64 78.4223 725.144 78.7301 725.598 79.1562C726.053 79.5777 726.415 80.1364 726.685 80.8324C726.955 81.5284 727.09 82.3854 727.09 83.4034V84.1136H718.681V82.6648H725.385C725.385 82.0492 725.262 81.5 725.016 81.017C724.775 80.5341 724.429 80.1529 723.979 79.8736C723.534 79.5942 723.008 79.4545 722.402 79.4545C721.735 79.4545 721.157 79.6203 720.669 79.9517C720.186 80.2784 719.815 80.7045 719.554 81.2301C719.294 81.7557 719.164 82.3191 719.164 82.9205V83.8864C719.164 84.7102 719.306 85.4086 719.59 85.9815C719.879 86.5497 720.279 86.983 720.79 87.2812C721.301 87.5748 721.896 87.7216 722.573 87.7216C723.013 87.7216 723.411 87.66 723.766 87.5369C724.126 87.4091 724.436 87.2197 724.696 86.9688C724.957 86.7131 725.158 86.3958 725.3 86.017L726.919 86.4716C726.749 87.0208 726.462 87.5038 726.06 87.9205C725.658 88.3324 725.16 88.6544 724.569 88.8864C723.977 89.1136 723.311 89.2273 722.573 89.2273ZM734.384 78.0909V79.5114H728.73V78.0909H734.384ZM730.378 75.4773H732.054V85.875C732.054 86.3485 732.123 86.7036 732.26 86.9403C732.402 87.1723 732.582 87.3286 732.8 87.4091C733.023 87.4848 733.257 87.5227 733.503 87.5227C733.688 87.5227 733.839 87.5133 733.958 87.4943C734.076 87.4706 734.171 87.4517 734.242 87.4375L734.583 88.9432C734.469 88.9858 734.31 89.0284 734.107 89.071C733.903 89.1184 733.645 89.142 733.333 89.142C732.859 89.142 732.395 89.0402 731.941 88.8366C731.491 88.633 731.117 88.3229 730.819 87.9062C730.525 87.4896 730.378 86.964 730.378 86.3295V75.4773ZM741.65 78.0909V79.5114H735.996V78.0909H741.65ZM737.644 75.4773H739.32V85.875C739.32 86.3485 739.389 86.7036 739.526 86.9403C739.668 87.1723 739.848 87.3286 740.066 87.4091C740.288 87.4848 740.523 87.5227 740.769 87.5227C740.953 87.5227 741.105 87.5133 741.223 87.4943C741.342 87.4706 741.436 87.4517 741.507 87.4375L741.848 88.9432C741.735 88.9858 741.576 89.0284 741.373 89.071C741.169 89.1184 740.911 89.142 740.598 89.142C740.125 89.142 739.661 89.0402 739.206 88.8366C738.757 88.633 738.382 88.3229 738.084 87.9062C737.791 87.4896 737.644 86.964 737.644 86.3295V75.4773ZM744.171 89V78.0909H745.847V89H744.171ZM745.023 76.2727C744.696 76.2727 744.415 76.1615 744.178 75.9389C743.946 75.7164 743.83 75.4489 743.83 75.1364C743.83 74.8239 743.946 74.5563 744.178 74.3338C744.415 74.1113 744.696 74 745.023 74C745.35 74 745.629 74.1113 745.861 74.3338C746.098 74.5563 746.216 74.8239 746.216 75.1364C746.216 75.4489 746.098 75.7164 745.861 75.9389C745.629 76.1615 745.35 76.2727 745.023 76.2727ZM750.593 82.4375V89H748.917V78.0909H750.536V79.7955H750.678C750.934 79.2415 751.322 78.7964 751.843 78.4602C752.364 78.1193 753.036 77.9489 753.86 77.9489C754.599 77.9489 755.245 78.1004 755.799 78.4034C756.353 78.7017 756.784 79.1562 757.092 79.767C757.399 80.3731 757.553 81.1402 757.553 82.0682V89H755.877V82.1818C755.877 81.3248 755.655 80.6572 755.21 80.179C754.764 79.696 754.154 79.4545 753.377 79.4545C752.842 79.4545 752.364 79.5705 751.942 79.8026C751.526 80.0346 751.197 80.3731 750.955 80.8182C750.714 81.2633 750.593 81.803 750.593 82.4375ZM765.02 93.3182C764.21 93.3182 763.514 93.214 762.931 93.0057C762.349 92.8021 761.864 92.5322 761.475 92.196C761.092 91.8646 760.787 91.5095 760.559 91.1307L761.895 90.1932C762.046 90.392 762.238 90.6193 762.47 90.875C762.702 91.1354 763.019 91.3603 763.422 91.5497C763.829 91.7438 764.361 91.8409 765.02 91.8409C765.9 91.8409 766.627 91.6278 767.2 91.2017C767.773 90.7756 768.059 90.108 768.059 89.1989V86.983H767.917C767.794 87.1818 767.619 87.428 767.392 87.7216C767.169 88.0104 766.847 88.2685 766.426 88.4957C766.009 88.7183 765.446 88.8295 764.735 88.8295C763.855 88.8295 763.064 88.6212 762.363 88.2045C761.667 87.7879 761.116 87.1818 760.708 86.3864C760.306 85.5909 760.105 84.625 760.105 83.4886C760.105 82.3712 760.301 81.3982 760.694 80.5696C761.087 79.7363 761.634 79.0923 762.335 78.6378C763.036 78.1785 763.845 77.9489 764.764 77.9489C765.474 77.9489 766.038 78.0672 766.454 78.304C766.876 78.536 767.198 78.8011 767.42 79.0994C767.647 79.393 767.823 79.6345 767.946 79.8239H768.116V78.0909H769.735V89.3125C769.735 90.25 769.522 91.0123 769.096 91.5994C768.675 92.1913 768.107 92.6245 767.392 92.8991C766.681 93.1785 765.891 93.3182 765.02 93.3182ZM764.963 87.3239C765.635 87.3239 766.203 87.17 766.667 86.8622C767.131 86.5545 767.484 86.1117 767.725 85.5341C767.967 84.9564 768.088 84.2652 768.088 83.4602C768.088 82.6742 767.969 81.9806 767.733 81.3793C767.496 80.7779 767.145 80.3068 766.681 79.9659C766.217 79.625 765.645 79.4545 764.963 79.4545C764.252 79.4545 763.661 79.6345 763.187 79.9943C762.718 80.3542 762.366 80.8371 762.129 81.4432C761.897 82.0492 761.781 82.7216 761.781 83.4602C761.781 84.2178 761.899 84.8878 762.136 85.4702C762.377 86.0478 762.733 86.5024 763.201 86.8338C763.675 87.1605 764.262 87.3239 764.963 87.3239Z" fill="black"/>
</svg>
